<?xml version="1.0" encoding="UTF-8"?><svg id="Layer_2" xmlns="http://www.w3.org/2000/svg" viewBox="0 0 130.32 61.64"><defs><style>.cls-1{fill:#414042;opacity:.25;stroke-width:0px;}.cls-2{opacity:.5;}.cls-3{opacity:.75;}</style></defs><g id="Layer_2-2"><g class="cls-3"><path class="cls-1" d="m87.99,48.34c-1.24,1.6-5.04.1-5.5,1.18-.28.65,1.03,1.26.98,2.55-.04,1.28-1.38,2.55-2.75,2.94-1.26.37-2.06-.14-5.88-1.66-2.99-1.2-4.51-1.79-5.3-1.77-1.13.03-2.23.36-3.17.78-.85.38-1.38,1.24-1.38,2.17v4.71c0,1.32-1.07,2.39-2.39,2.39h0c-1.32,0-2.39-1.07-2.39-2.39v-.97c0-.99-.54-1.94-1.45-2.32-.79-.33-1.5-.89-1.97-1.58.22.26.47.45.77.56.79.29,1.52-.22,2.66-1.11,1.09-.87,2.55-2.12,4.78-3.4.3-.17.61-.33.93-.5,2.1-1.08,3.48-1.46,4.81-1.08,1.11.33,1.24.92,2.48,1.26,1.57.42,3.84.14,4.69-1.14,1.05-1.58-.85-3.43.11-4.69,1.05-1.39,3.68.37,5.73-1.17.13-.1.25-.2.37-.32.55-.04,1.23-.26,2.03.07,1.21.5,1.69,1.87,1.87,2.36.17.47.75,2.15,0,3.13Z"/><path class="cls-1" d="m89.95,38.04c-.14.98-.68,1.63-.89,1.87-1.16,1.28-2.89,1.28-3.15,1.27-.31,0-.59-.05-.84-.11-.97-.22-1.51-.69-1.9-.38-.43.35-.41,1.39.1,1.87.23.23.5.25.81.23-.12.12-.24.23-.37.32-2.05,1.54-4.68-.22-5.73,1.17-.96,1.26.94,3.11-.11,4.69-.85,1.28-3.12,1.55-4.69,1.14-1.23-.33-1.36-.92-2.48-1.26-1.33-.38-2.7,0-4.81,1.08-.32.17-.63.33-.93.5-2.24,1.28-3.7,2.52-4.78,3.4-1.14.9-1.87,1.4-2.66,1.11-.3-.11-.55-.3-.77-.56-.04-.04-.07-.08-.1-.13-.47-.74-.51-1.42-.6-2.75-.01-.14-.01-.28-.02-.41-.12-3.18.75-4.2.02-5.09-.91-1.1-3.5-1.03-4.71.11-.73.68-.45,1.3-1.38,2.25-.69.73-1.96,1.51-2.94,1.18-.89-.3-1-1.33-1.57-2.45-1.79-3.6-5.38-2.88-6.97-6.29-.2-.43-1.17-2.5-.29-4.02.93-1.63,3.01-.96,5.88-2.94,1.08-.75,2.75-1.91,2.85-3.54.12-2.06-2.43-2.94-2.06-4.32.41-1.52,3.65-.86,5.49-3.43.24-.33.93-1.33.89-2.66-.06-1.48-1.03-2.56-1.38-2.94-1.34-1.48-2.69-1.48-2.77-2.39-.08-.85,1-1.57,1.11-1.63,1.7-1.1,4.15-.07,4.22-.3.05-.2-2.02-.47-2.56-1.77-.45-1.11.41-2.45.79-3.04.38-.6,1.02-1.59,2.06-1.77.92-.17,1.22.47,2.07.3,1.14-.24,2.18-1.72,1.87-2.56-.42-1.09-2.92-.55-3.24-1.57-.23-.69.62-1.91,1.66-2.16,1.77-.41,3.12,2.22,4.81,1.67.68-.22.62-.69,1.38-.89,1.12-.28,2.22.51,3.15,1.18,1.81,1.32,1.47,1.85,2.75,2.64,1.91,1.18,3.35.39,4.02,1.47.54.87-.29,1.52.2,3.15.11.38.55,1.87,1.66,2.26,1.26.43,2.14-.94,3.15-.49.91.41.39,1.64,1.57,3.13.47.59.97.94,1.38,1.22.48.33.83.56.79.94-.04.37-.41.55-1.18,1.08,0,0-1.46.99-2.85,2.36-.05.05-.1.11-.11.11-.92.92-1.38,1.38-1.36,1.59.04.53,1.61.73,4.22,1.34,1.84.44,2.77.74,3.29.98.37.16.53.29.63.39,1.44,1.42,1.72,3.99.89,4.62-.79.59-2.42-.65-2.64-.3-.18.28.55,1.4,1.66,1.77,1.54.53,2.66-.75,3.34-.19.69.56.41,2.56-.59,3.73-.3.35-.61.56-.8.72-.13.11-.2.18-.18.26.04.1.2.11.45.08.96-.13,3.13-.81,4.35.2.83.69,1.02,2.01.89,2.95Z"/><path class="cls-1" d="m85.08,41.07c-.2.62-.51,1.23-.99,1.71-.12.12-.24.23-.37.32-2.05,1.54-4.68-.22-5.73,1.17-.96,1.26.94,3.11-.11,4.69-.85,1.28-3.12,1.55-4.69,1.14-1.23-.33-1.36-.92-2.48-1.26-1.33-.38-2.7,0-4.81,1.08-.32.17-.63.33-.93.5-2.24,1.28-3.7,2.52-4.78,3.4-1.14.9-1.87,1.4-2.66,1.11-.3-.11-.55-.3-.77-.56-.04-.04-.07-.08-.1-.13-.54-.72-.79-1.81-.72-2.63.01-.2.05-.37.1-.53.2-.66.67-1.08,1.21-2.06.86-1.54,1.94-4.52.91-5.79-1.08-1.34-3.58.33-4.77-1.03-.93-1.05.37-2.3.18-6.61-.02-.59-.08-1.34.29-2.19.38-.85.87-1.08,2.02-2.13,1.46-1.34,1.29-1.55,2.88-3.06.78-.74,1.38-1.22,2.26-1.91,3.31-2.63,4.21-2.71,4.46-3.83.37-1.64-1.16-3.3-1.34-3.49-1-1.06-1.66-.74-2.75-1.83-.37-.37-1.77-1.78-1.48-3.65.19-1.16,1-2.26,2.13-2.73,1.38-.59,2.71-.02,3.3.23,3.04,1.33,2.64,4.2,5.01,4.95,1.63.51,2.07-.73,5.27-.84,1.06-.04,2.33-.07,3.52.29.63.19,1.24.49,1.79.96,1.9,1.63,2.63,4.92,1.42,6.9-.13.2-.26.38-.42.54-1.36,1.41-3.61.78-5.84,2.97-2.06,2.03-2.98,5.41-1.88,6.66.16.19.56.55,4.62.5,3.55-.05,4.45-.35,5.35.37.08.07.17.14.24.24.11.1.2.22.28.35.57.85.65,1.97.72,2.85.02.38.13,1.91-.35,3.34Z"/><path class="cls-1" d="m67.94,17.92c2.73,4.17,2.54,3.37,3.96,5.84,1.49,2.59,2.24,3.89,2.18,4.93-.12,2.07-1.64,2.94-1.11,4.25.35.84,1.04.63,2.72,2.02,1.68,1.38,1.45,1.97,2.55,2.49,1.9.9,3.63-.42,4.16.31.51.7-.64,2.52-1.73,3.62-.39.39-2.89,2.84-6.23,2.51-2.69-.26-3.12-2.06-5.71-2.04-2.36.01-3.42,1.51-4.07.99-1.27-1.01,3.45-6.16,1.63-10.3-.84-1.91-2.46-2.21-2.8-4.56-.06-.4-.34-2.3.75-3.81,1.05-1.45,2.44-1.25,2.71-2.37.23-.95-.72-1.34-1.04-3.22-.19-1.1-.14-2.53.3-2.66.37-.11.89.73,1.73,2.01Z"/></g><path class="cls-1" d="m128.32,48.34c-1.24,1.6-5.04.1-5.5,1.18-.28.65,1.03,1.26.98,2.55-.04,1.28-1.38,2.55-2.75,2.94-1.26.37-2.06-.14-5.88-1.66-2.99-1.2-4.51-1.79-5.3-1.77-1.13.03-2.23.36-3.17.78-.85.38-1.38,1.24-1.38,2.17v4.71c0,1.32-1.07,2.39-2.39,2.39h0c-1.32,0-2.39-1.07-2.39-2.39v-.97c0-.99-.54-1.94-1.45-2.32-.79-.33-1.5-.89-1.97-1.58.22.26.47.45.77.56.79.29,1.52-.22,2.66-1.11,1.09-.87,2.55-2.12,4.78-3.4.3-.17.61-.33.93-.5,2.1-1.08,3.48-1.46,4.81-1.08,1.11.33,1.24.92,2.48,1.26,1.57.42,3.84.14,4.69-1.14,1.05-1.58-.85-3.43.11-4.69,1.05-1.39,3.68.37,5.73-1.17.13-.1.25-.2.37-.32.55-.04,1.23-.26,2.03.07,1.21.5,1.69,1.87,1.87,2.36.17.47.75,2.15,0,3.13Z"/><path class="cls-1" d="m130.28,38.04c-.14.98-.68,1.63-.89,1.87-1.16,1.28-2.89,1.28-3.15,1.27-.31,0-.59-.05-.84-.11-.97-.22-1.51-.69-1.9-.38-.43.35-.41,1.39.1,1.87.23.23.5.25.81.23-.12.12-.24.23-.37.32-2.05,1.54-4.68-.22-5.73,1.17-.96,1.26.94,3.11-.11,4.69-.85,1.28-3.12,1.55-4.69,1.14-1.23-.33-1.36-.92-2.48-1.26-1.33-.38-2.7,0-4.81,1.08-.32.17-.63.33-.93.5-2.24,1.28-3.7,2.52-4.78,3.4-1.14.9-1.87,1.4-2.66,1.11-.3-.11-.55-.3-.77-.56-.04-.04-.07-.08-.1-.13-.47-.74-.51-1.42-.6-2.75-.01-.14-.01-.28-.02-.41-.12-3.18.75-4.2.02-5.09-.91-1.1-3.5-1.03-4.71.11-.73.68-.45,1.3-1.38,2.25-.69.73-1.96,1.51-2.94,1.18-.89-.3-1-1.33-1.57-2.45-1.79-3.6-5.38-2.88-6.97-6.29-.2-.43-1.17-2.5-.29-4.02.93-1.63,3.01-.96,5.88-2.94,1.08-.75,2.75-1.91,2.85-3.54.12-2.06-2.43-2.94-2.06-4.32.41-1.52,3.65-.86,5.49-3.43.24-.33.93-1.33.89-2.66-.06-1.48-1.03-2.56-1.38-2.94-1.34-1.48-2.69-1.48-2.77-2.39-.08-.85,1-1.57,1.11-1.63,1.7-1.1,4.15-.07,4.22-.3.05-.2-2.02-.47-2.56-1.77-.45-1.11.41-2.45.79-3.04.38-.6,1.02-1.59,2.06-1.77.92-.17,1.22.47,2.07.3,1.14-.24,2.18-1.72,1.87-2.56-.42-1.09-2.92-.55-3.24-1.57-.23-.69.62-1.91,1.66-2.16,1.77-.41,3.12,2.22,4.81,1.67.68-.22.62-.69,1.38-.89,1.12-.28,2.22.51,3.15,1.18,1.81,1.32,1.47,1.85,2.75,2.64,1.91,1.18,3.35.39,4.02,1.47.54.87-.29,1.52.2,3.15.11.38.55,1.87,1.66,2.26,1.26.43,2.14-.94,3.15-.49.91.41.39,1.64,1.57,3.13.47.59.97.94,1.38,1.22.48.33.83.56.79.94-.04.37-.41.55-1.18,1.08,0,0-1.46.99-2.85,2.36-.05.05-.1.11-.11.11-.92.92-1.38,1.38-1.36,1.59.04.53,1.61.73,4.22,1.34,1.84.44,2.77.74,3.29.98.37.16.53.29.63.39,1.44,1.42,1.72,3.99.89,4.62-.79.59-2.42-.65-2.64-.3-.18.28.55,1.4,1.66,1.77,1.54.53,2.66-.75,3.34-.19.69.56.41,2.56-.59,3.73-.3.35-.61.56-.8.72-.13.11-.2.18-.18.26.04.1.2.11.45.08.96-.13,3.13-.81,4.35.2.83.69,1.02,2.01.89,2.95Z"/><path class="cls-1" d="m125.41,41.07c-.2.62-.51,1.23-.99,1.71-.12.12-.24.23-.37.32-2.05,1.54-4.68-.22-5.73,1.17-.96,1.26.94,3.11-.11,4.69-.85,1.28-3.12,1.55-4.69,1.14-1.23-.33-1.36-.92-2.48-1.26-1.33-.38-2.7,0-4.81,1.08-.32.17-.63.33-.93.5-2.24,1.28-3.7,2.52-4.78,3.4-1.14.9-1.87,1.4-2.66,1.11-.3-.11-.55-.3-.77-.56-.04-.04-.07-.08-.1-.13-.54-.72-.79-1.81-.72-2.63.01-.2.05-.37.1-.53.2-.66.67-1.08,1.21-2.06.86-1.54,1.94-4.52.91-5.79-1.08-1.34-3.58.33-4.77-1.03-.93-1.05.37-2.3.18-6.61-.02-.59-.08-1.34.29-2.19.38-.85.87-1.08,2.02-2.13,1.46-1.34,1.29-1.55,2.88-3.06.78-.74,1.38-1.22,2.26-1.91,3.31-2.63,4.21-2.71,4.46-3.83.37-1.64-1.16-3.3-1.34-3.49-1-1.06-1.66-.74-2.75-1.83-.37-.37-1.77-1.78-1.48-3.65.19-1.16,1-2.26,2.13-2.73,1.38-.59,2.71-.02,3.3.23,3.04,1.33,2.64,4.2,5.01,4.95,1.63.51,2.07-.73,5.27-.84,1.06-.04,2.33-.07,3.52.29.63.19,1.24.49,1.79.96,1.9,1.63,2.63,4.92,1.42,6.9-.13.2-.26.38-.42.54-1.36,1.41-3.61.78-5.84,2.97-2.06,2.03-2.98,5.41-1.88,6.66.16.19.56.55,4.62.5,3.55-.05,4.45-.35,5.35.37.08.07.17.14.24.24.11.1.2.22.28.35.57.85.65,1.97.72,2.85.02.38.13,1.91-.35,3.34Z"/><path class="cls-1" d="m108.28,17.92c2.73,4.17,2.54,3.37,3.96,5.84,1.49,2.59,2.24,3.89,2.18,4.93-.12,2.07-1.64,2.94-1.11,4.25.35.84,1.04.63,2.72,2.02,1.68,1.38,1.45,1.97,2.55,2.49,1.9.9,3.63-.42,4.16.31.51.7-.64,2.52-1.73,3.62-.39.39-2.89,2.84-6.23,2.51-2.69-.26-3.12-2.06-5.71-2.04-2.36.01-3.42,1.51-4.07.99-1.27-1.01,3.45-6.16,1.63-10.3-.84-1.91-2.46-2.21-2.8-4.56-.06-.4-.34-2.3.75-3.81,1.05-1.45,2.44-1.25,2.71-2.37.23-.95-.72-1.34-1.04-3.22-.19-1.1-.14-2.53.3-2.66.37-.11.89.73,1.73,2.01Z"/><g class="cls-2"><path class="cls-1" d="m50.12,48.34c-1.23,1.6-5.02.1-5.49,1.18-.29.65,1.02,1.26.98,2.55-.05,1.28-1.39,2.55-2.75,2.94-1.26.37-2.07-.14-5.88-1.66-3-1.2-4.51-1.79-5.31-1.77-1,.03-1.98.29-2.85.65s-1.46,1.25-1.46,2.21v4.81c0,1.32-1.07,2.39-2.39,2.39h0c-1.32,0-2.39-1.07-2.39-2.39v-1.01c0-.98-.59-1.88-1.51-2.22s-1.7-.94-2.2-1.72c.23.3.49.51.81.63.85.31,1.63-.29,2.89-1.29,1.1-.9,2.57-2.12,4.78-3.34.23-.13.47-.25.71-.38,2.09-1.08,3.48-1.46,4.81-1.08,1.11.33,1.23.92,2.46,1.26,1.57.42,3.85.14,4.7-1.14,1.04-1.58-.86-3.43.1-4.69,1.05-1.39,3.7.37,5.74-1.17.13-.1.25-.2.36-.32.55-.04,1.23-.26,2.03.07,1.21.5,1.7,1.87,1.87,2.36.17.47.77,2.15,0,3.13Z"/><path class="cls-1" d="m52.09,38.04c-.14.98-.67,1.63-.87,1.87-1.17,1.28-2.89,1.28-3.15,1.27-.31,0-.59-.05-.84-.11-.98-.22-1.52-.69-1.91-.38-.42.35-.39,1.39.1,1.87.24.23.5.25.81.23-.11.12-.23.23-.36.32-2.05,1.54-4.69-.22-5.74,1.17-.96,1.26.94,3.11-.1,4.69-.85,1.28-3.13,1.55-4.7,1.14-1.23-.33-1.35-.92-2.46-1.26-1.33-.38-2.71,0-4.81,1.08-.24.13-.48.25-.71.38-2.21,1.22-3.68,2.44-4.78,3.34-1.27,1-2.05,1.6-2.89,1.29-.32-.12-.59-.33-.81-.63-.02-.02-.05-.05-.06-.08-.44-.73-.49-1.41-.57-2.73-.01-.14-.01-.28-.02-.41-.12-3.18.75-4.2.02-5.09-.91-1.1-3.5-1.03-4.71.11-.74.68-.45,1.3-1.38,2.25-.71.73-1.96,1.51-2.94,1.18-.89-.3-1-1.33-1.57-2.45-1.79-3.6-5.38-2.88-6.97-6.29-.2-.43-1.17-2.5-.3-4.02.93-1.63,3.03-.96,5.9-2.94,1.08-.75,2.75-1.91,2.85-3.54.11-2.06-2.43-2.94-2.07-4.32.41-1.52,3.65-.86,5.5-3.43.24-.33.93-1.33.89-2.66-.06-1.48-1.03-2.56-1.38-2.94-1.34-1.48-2.69-1.48-2.77-2.39-.08-.85,1-1.57,1.1-1.63,1.7-1.1,4.16-.07,4.22-.3.06-.2-2.01-.47-2.55-1.77-.45-1.11.41-2.45.79-3.04.38-.6,1.02-1.59,2.06-1.77.92-.17,1.22.47,2.06.3,1.15-.24,2.18-1.72,1.87-2.56-.41-1.09-2.92-.55-3.24-1.57-.22-.69.63-1.91,1.67-2.16,1.76-.41,3.12,2.22,4.81,1.67.68-.22.61-.69,1.38-.89,1.11-.28,2.22.51,3.15,1.18,1.81,1.32,1.46,1.85,2.74,2.64,1.93,1.18,3.36.39,4.03,1.47.54.87-.29,1.52.19,3.15.12.38.56,1.87,1.67,2.26,1.26.43,2.13-.94,3.13-.49.92.41.39,1.64,1.58,3.13.47.6.98.96,1.39,1.23.47.32.8.55.77.93-.04.37-.41.55-1.17,1.08,0,0-1.46.99-2.85,2.36-.05.05-.11.11-.12.11-.91.92-1.38,1.38-1.35,1.59.04.53,1.61.73,4.22,1.34,1.85.44,2.79.75,3.29.98.36.16.51.29.63.39,1.44,1.42,1.72,3.99.89,4.62-.79.59-2.43-.65-2.66-.3-.18.28.55,1.4,1.67,1.77,1.54.53,2.66-.75,3.34-.19.69.56.39,2.56-.6,3.73-.3.35-.61.56-.8.72-.13.11-.2.18-.18.26.04.1.19.11.45.08.94-.12,3.13-.81,4.37.2.83.69,1.02,2.01.87,2.95Z"/><path class="cls-1" d="m47.23,41.07c-.2.62-.53,1.23-1,1.71-.11.12-.23.23-.36.32-2.05,1.54-4.69-.22-5.74,1.17-.96,1.26.94,3.11-.1,4.69-.85,1.28-3.13,1.55-4.7,1.14-1.23-.33-1.35-.92-2.46-1.26-1.33-.38-2.71,0-4.81,1.08-.24.13-.48.25-.71.38-2.21,1.22-3.68,2.44-4.78,3.34-1.27,1-2.05,1.6-2.89,1.29-.32-.12-.59-.33-.81-.63-.02-.02-.05-.05-.06-.08-.53-.72-.77-1.78-.69-2.61.01-.2.05-.37.1-.53.2-.66.67-1.08,1.21-2.06.85-1.54,1.94-4.52.91-5.79-1.08-1.34-3.58.33-4.78-1.03-.92-1.05.37-2.3.19-6.61-.02-.59-.08-1.34.29-2.19.38-.85.87-1.08,2.02-2.13,1.45-1.34,1.28-1.55,2.87-3.06.79-.74,1.39-1.22,2.27-1.91,3.31-2.63,4.21-2.71,4.45-3.83.37-1.64-1.15-3.3-1.34-3.49-1-1.06-1.65-.74-2.74-1.83-.37-.37-1.78-1.78-1.48-3.65.18-1.16.99-2.26,2.12-2.73,1.38-.59,2.71-.02,3.3.23,3.04,1.33,2.66,4.2,5.02,4.95,1.61.51,2.07-.73,5.26-.84,1.08-.04,2.36-.07,3.54.3.63.18,1.23.48,1.78.94,1.89,1.63,2.63,4.92,1.42,6.9-.13.2-.26.38-.42.54-1.36,1.41-3.62.78-5.84,2.97-2.07,2.03-2.98,5.41-1.89,6.66.17.19.57.55,4.63.5,3.55-.05,4.45-.35,5.33.37.08.07.17.14.24.24.11.1.2.22.28.35.59.85.66,1.97.72,2.85.04.38.14,1.9-.33,3.34Z"/><path class="cls-1" d="m30.09,17.92c2.73,4.17,2.54,3.37,3.96,5.84,1.49,2.59,2.24,3.89,2.18,4.93-.12,2.07-1.64,2.94-1.11,4.25.35.84,1.04.63,2.72,2.02,1.68,1.38,1.45,1.97,2.55,2.49,1.9.9,3.63-.42,4.16.31.51.7-.64,2.52-1.73,3.62-.39.39-2.89,2.84-6.23,2.51-2.69-.26-3.12-2.06-5.71-2.04-2.36.01-3.42,1.51-4.07.99-1.27-1.01,3.45-6.16,1.63-10.3-.84-1.91-2.46-2.21-2.8-4.56-.06-.4-.34-2.3.75-3.81,1.05-1.45,2.44-1.25,2.71-2.37.23-.95-.72-1.34-1.04-3.22-.19-1.1-.14-2.53.3-2.66.37-.11.89.73,1.73,2.01Z"/></g></g></svg>